# xmcd
#
# Track frame offsets: 
#        150
#        9551
#        22683
#        45569
#        60186
#        73708
#        87649
#        106653
#        120451
#        136292
#        154843
#        167965
#        234114
#
# Disc length: 3272 seconds
#
# Revision: 2
# Processed by: cddbd v1.5.2PL0 Copyright (c) Steve Scherf et al.
# Submitted via: ExactAudioCopy v0.99pb5
#
DISCID=950cc60d
DTITLE=Mark Mulcahy - In Pursuit of Your Happiness
DYEAR=2005
DGENRE=Indie Alt. Rock
TTITLE0=In Pursuit of Your Happiness
TTITLE1=Cookie Jar
TTITLE2=I Have Patience
TTITLE3=Be Sure
TTITLE4=Cn't Find a Reason To Let You Go
TTITLE5=A World Away from This One
TTITLE6=A Smack on the Lips
TTITLE7=Everything's Coming Undone
TTITLE8=4:04
TTITLE9=Nothing but a Silver Medal
TTITLE10=Propstar
TTITLE11=He Vanished
TTITLE12=(Pigs in Pursuit Video)
EXTD=
EXTT0=
EXTT1=
EXTT2=
EXTT3=
EXTT4=
EXTT5=
EXTT6=
EXTT7=
EXTT8=
EXTT9=
EXTT10=
EXTT11=
EXTT12=
PLAYORDER=
